# AST/ASF file generated using VICON BodyLanguage
# -----------------------------------------------
:version 1.10
:name VICON
:units
  mass 1.0
  length 0.45
  angle deg
:documentation
   .ast/.asf automatically generated from VICON data using
   VICON BodyBuilder and BodyLanguage model FoxedUp or BRILLIANT.MOD
:root
   order TX TY TZ RX RY RZ
   axis XYZ
   position 0 0 0  
   orientation 0 0 0 
:bonedata
  begin
     id 1 
     name lhipjoint
     direction 0.560651 -0.75055 0.34978 
     length 2.44936 
     axis 0 0 0  XYZ
  end
  begin
     id 2 
     name lfemur
     direction 0.34202 -0.939693 0  
     length 7.42139  
     axis 0 0 20  XYZ
    dof rx ry rz
    limits (-160.0 20.0)
           (-70.0 70.0)
           (-60.0 70.0)
  end
  begin
     id 3 
     name ltibia
     direction 0.34202 -0.939693 0   
     length 7.75674   
     axis 0 0 20   XYZ
    dof rx
    limits (-10.0 170.0)
  end
  begin
     id 4 
     name lfoot
     direction 0.0925879 -0.254383 0.962661   
     length 2.38688   
     axis -90 7.62852e-016 20   XYZ
    dof rx rz
    limits (-45.0 90.0)
           (-70.0 20.0)
  end
  begin
     id 5 
     name ltoes
     direction 1.53567e-011 -4.21973e-011 1   
     length 1.19228   
     axis -90 7.62852e-016 20   XYZ
    dof rx
    limits (-90.0 20.0)
  end
  begin
     id 6 
     name rhipjoint
     direction -0.540087 -0.762838 0.355506   
     length 2.4099  
     axis 0 0 0  XYZ 
  end
  begin
     id 7 
     name rfemur
     direction -0.34202 -0.939693 0   
     length 7.70794   
     axis 0 0 -20   XYZ
    dof rx ry rz
    limits (-160.0 20.0)
           (-70.0 70.0)
           (-70.0 60.0)
  end
  begin
     id 8 
     name rtibia
     direction -0.34202 -0.939693 0   
     length 7.66106   
     axis 0 0 -20   XYZ
    dof rx
    limits (-10.0 170.0)
 end
 begin
     id 9 
     name rfoot
     direction -0.0830975 -0.228308 0.970036   
     length 2.4989  
     axis -90 -7.62852e-016 -20   XYZ
    dof rx rz
    limits (-45.0 90.0)
           (-20.0 70.0)
  end
  begin
     id 10 
     name rtoes
     direction -1.53517e-011 -4.21842e-011 1   
     length 1.2498   
     axis -90 -7.62852e-016 -20   XYZ
    dof rx
    limits (-90.0 20.0)
  end
  begin
     id 11 
     name lowerback
     direction 0.0266356 0.99402 -0.105896   
     length 2.1545   
     axis 0 0 0   XYZ
    dof rx ry rz
    limits (-20.0 45.0)
           (-30.0 30.0)
           (-30.0 30.0)
  end
  begin
     id 12 
     name upperback
     direction 0.0130547 0.999192 0.0380027   
     length 2.1434   
     axis 0 0 0   XYZ
    dof rx ry rz
    limits (-20.0 45.0)
           (-30.0 30.0)
           (-30.0 30.0)
  end
  begin
     id 13 
     name thorax
     direction 0.000590299 0.996288 0.0860764   
     length 2.19049   
     axis 0 0 0   XYZ
    dof rx ry rz
    limits (-20.0 45.0)
           (-30.0 30.0)
           (-30.0 30.0)
  end
  begin
     id 14 
     name lowerneck
     direction -0.0432125 0.978219 0.203028   
     length 1.62441   
     axis 0 0 0   XYZ
    dof rx ry rz
    limits (-20.0 45.0)
           (-30.0 30.0)
           (-30.0 30.0)
  end
  begin
     id 15 
     name upperneck
     direction -0.0192309 0.991699 -0.127138   
     length 1.66666   
     axis 0 0 0   XYZ
    dof rx ry rz
    limits (-20.0 45.0)
           (-30.0 30.0)
           (-30.0 30.0)
  end
  begin
     id 16
     name head
     direction -0.00434499 0.997882 -0.0649107  
     length 1.67142  
     axis 0 0 0   XYZ
    dof rx ry rz
    limits (-20.0 45.0)
           (-30.0 30.0)
           (-30.0 30.0)
  end
  begin
     id 17 
     name lclavicle
     direction 0.970351 0.240904 -0.0196058  
     length 4.04862  
     axis 0 0 0   XYZ
    dof ry rz
    limits (-20.0 10.0)
           (0.0 20.0)
  end
  begin
     id 18 
     name lhumerus
     direction 1 -4.4896e-011 -1.40911e-018   
     length 5.58345   
     axis 180 -30 -90   XYZ
    dof rx ry rz
    limits (-60.0 90.0)
           (-90.0 90.0)
           (-90.0 90.0)
  end
  begin
     id 19
     name lradius
     direction 1 -4.48968e-011 5.88912e-028   
     length 3.71087   
     axis 180 -30 -90   XYZ
    dof rx
    limits (-10.0 170.0)
  end
  begin
     id 20
     name lwrist
     direction 1 -4.48955e-011 -8.83775e-028   
     length 1.85544   
     axis 5.52448e-016 90 90   XYZ
    dof ry
    limits (-180.0 0.0)
 end
  begin
     id 21 
     name lhand
     direction 1 -4.49035e-011 -1.76755e-027   
     length 0.562322   
     axis 1.12785e-015 90 90   XYZ
    dof rx rz
    limits (-90.0 90.0)
           (-45.0 45.0)
  end
  begin
     id 22 
     name lfingers
     direction 1 -4.48824e-011 -3.5351e-027   
     length 0.453359   
     axis 2.2557e-015 90 90   XYZ
    dof rx
    limits (0.0 90.0)
  end
  begin
     id 23
     name lthumb
     direction 0.707107 -6.34888e-011 0.707107   
     length 0.650935   
     axis -90 45 2.85299e-015   XYZ
    dof rx rz
    limits (-45.0 45.0)
           (-45.0 45.0)
  end
  begin
     id 24 
     name rclavicle
     direction -0.96165 0.268562 -0.0557131   
     length 4.05446  
     axis 0 0 0   XYZ 
    dof ry rz
    limits (-10.0 20.0)
           (-20.0 0.0)
  end
  begin
     id 25 
     name rhumerus
     direction -1 -4.48957e-011 -3.36329e-027  
     length 5.20357   
     axis 180 30 90   XYZ
    dof rx ry rz
    limits (-90.0 60.0)
           (-90.0 90.0)
           (-90.0 90.0)
  end
  begin
     id 26 
     name rradius
     direction -1 -4.48974e-011 4.51441e-027   
     length 3.64937   
     axis 180 30 90   XYZ
    dof rx
    limits (-10.0 170.0)
  end
  begin
     id 27 
     name rwrist
     direction -1 -4.4896e-011 -8.83775e-028   
     length 1.82468   
     axis 5.52448e-016 -90 -90   XYZ
    dof ry
    limits (-180.0 0.0)
  end
  begin
     id 28
     name rhand
     direction -1 -4.48996e-011 -1.76755e-027   
     length 0.617996   
     axis 1.12785e-015 -90 -90   XYZ
    dof rx rz
    limits (-90.0 90.0)
           (-45.0 45.0)
  end
  begin
     id 29
     name rfingers
     direction -1 -4.48957e-011 -3.5351e-027   
     length 0.498244   
     axis 2.2557e-015 -90 -90   XYZ
    dof rx
    limits (0.0 90.0)
  end
  begin
     id 30
     name rthumb
     direction -0.707107 -6.34931e-011 0.707107   
     length 0.715382   
     axis -90 -45 -2.85299e-015   XYZ
    dof rx rz
    limits (-45.0 45.0)
           (-45.0 45.0)
  end
:hierarchy
  begin
    root lhipjoint rhipjoint lowerback
    lhipjoint lfemur
    lfemur ltibia
    ltibia lfoot
    lfoot ltoes
    rhipjoint rfemur
    rfemur rtibia
    rtibia rfoot
    rfoot rtoes
    lowerback upperback
    upperback thorax
    thorax lowerneck lclavicle rclavicle
    lowerneck upperneck
    upperneck head
    lclavicle lhumerus
    lhumerus lradius
    lradius lwrist
    lwrist lhand lthumb
    lhand lfingers
    rclavicle rhumerus
    rhumerus rradius
    rradius rwrist
    rwrist rhand rthumb
    rhand rfingers
  end

#!OML:ASF H:\ManfredETheater\Project 1\Capture day 2\Session 1\Male1.ASF
:FULLY-SPECIFIED
:DEGREES
143
root -5.81346 2.11397 -10.9074 -52.1045 -64.1132 325.237
lowerback 16.7853 0.843599 -49.9973
upperback 5.35607 -8.89189 -6.36518
thorax 2.92039 -5.99757 13.6008
lowerneck -12.9955 4.21385 1.76084
upperneck 26.9357 5.44682 -0.84785
head 10.8938 2.29321 0.0581831
rclavicle 4.29375e-014 1.39447e-013
rhumerus 24.5955 -0.540688 -40.4813
rradius 78.181
rwrist 10.6787
rhand -37.0614 -21.7473
rfingers 7.12502
rthumb -10.1339 -411.483
lclavicle 4.29375e-014 1.39447e-013
lhumerus 10.9653 17.4901 30.0034
lradius 98.8941
lwrist -21.361
lhand -32.3985 8.86063
lfingers 7.12502
lthumb -5.63352 38.7657
rfemur -146.07 -23.9893 5.32999
rtibia 120.459
rfoot 12.5244 11.3807
rtoes -1.95002
lfemur -103.471 25.4641 -88.6432
ltibia 109.339
lfoot 7.5719 -2.87887
ltoes -16.0855
144
root -5.8803 2.09566 -11.0819 -55.8446 -64.3928 328.669
lowerback 16.8856 0.854608 -50.6574
upperback 5.74223 -9.04168 -6.30157
thorax 3.48436 -6.27235 13.7113
lowerneck -13.1908 4.03489 1.33154
upperneck 26.98 5.29742 -0.920543
head 10.9352 2.16575 0.0880723
rclavicle -7.95139e-015 1.33186e-014
rhumerus 21.06 0.727824 -42.2179
rradius 77.3828
rwrist 11.5478
rhand -35.1181 -21.7982
rfingers 7.12502
rthumb -8.25873 -411.617
lclavicle -7.95139e-015 1.33186e-014
lhumerus 11.0322 17.6557 31.8882
lradius 98.4016
lwrist -21.2339
lhand -33.0189 10.8344
lfingers 7.12502
lthumb -6.23242 40.7227
rfemur -145.342 -26.7045 6.02975
rtibia 123.234
rfoot 15.843 15.5327
rtoes -3.03526
lfemur -99.7907 26.8283 -88.0347
ltibia 110.055
lfoot 9.08232 -2.90764
ltoes -15.6445
145
root -5.99801 2.07566 -11.2795 -57.498 -66.3805 328.408
lowerback 17.926 1.22425 -48.9664
upperback 6.56261 -8.7433 -6.03756
thorax 3.68315 -6.31815 13.7606
lowerneck -13.1646 3.82783 0.844455
upperneck 26.9351 5.13615 -1.05392
head 10.9002 2.02094 0.0984031
rclavicle 1.74931e-014 1.39149e-013
rhumerus 18.0196 1.6927 -43.7352
rradius 75.8882
rwrist 12.1955
rhand -33.7387 -21.3668
rfingers 7.12502
rthumb -6.92732 -411.233
lclavicle 1.74931e-014 1.39149e-013
lhumerus 11.4082 17.7019 34.3875
lradius 97.846
lwrist -20.7821
lhand -33.9743 12.3151
lfingers 7.12502
lthumb -7.15477 42.1742
rfemur -143.167 -29.4928 8.02624
rtibia 126.266
rfoot 20.3244 18.6908
rtoes -2.29368
lfemur -95.9504 28.8937 -84.648
ltibia 111.437
lfoot 12.0806 -2.36081
ltoes -14.3667
146
root -6.14145 2.03891 -11.4828 -57.0713 -69.7385 324.812
lowerback 19.8713 1.85085 -45.4376
upperback 7.75073 -8.14193 -5.59042
thorax 3.53744 -6.19371 13.6594
lowerneck -12.9829 3.61722 0.303305
upperneck 26.9409 4.96753 -1.15546
head 10.8519 1.86775 0.125227
rclavicle -4.05521e-014 8.26944e-014
rhumerus 15.4268 2.3701 -45.1326
rradius 73.8425
rwrist 12.5758
rhand -32.8924 -20.501
rfingers 7.12502
rthumb -6.11036 -410.393
lclavicle -4.05521e-014 8.26944e-014
lhumerus 12.0978 17.6181 37.2644
lradius 97.0926
lwrist -19.9858
lhand -35.1231 13.8462
lfingers 7.12502
lthumb -8.26357 43.6646
rfemur -139.285 -32.6377 10.6988
rtibia 129.146
rfoot 25.0573 20.8425
rtoes 0.000934919
lfemur -91.5537 31.6029 -78.9741
ltibia 113.042
lfoot 16.6739 -1.55707
ltoes -12.0059
147
root -6.28245 1.98013 -11.6759 -53.4706 -73.7701 317.239
lowerback 22.3392 2.28805 -40.1891
upperback 9.56249 -7.35452 -5.78355
thorax 3.12 -5.99276 13.4502
lowerneck -12.7248 3.41535 -0.202051
upperneck 27.1143 4.77276 -1.18155
head 10.851 1.70731 0.168941
rclavicle -6.83819e-014 -1.64991e-013
rhumerus 13.1464 2.75042 -46.5172
rradius 71.4585
rwrist 12.7028
rhand -32.5577 -19.1807
rfingers 7.12502
rthumb -5.78716 -409.082
lclavicle -6.83819e-014 -1.64991e-013
lhumerus 13.125 17.3527 40.2702
lradius 96.0535
lwrist -18.9761
lhand -36.2632 15.2085
lfingers 7.12502
lthumb -9.36379 44.9805
rfemur -133.31 -36.4509 13.1617
rtibia 131.53
rfoot 28.5843 22.1092
rtoes 3.36537
lfemur -86.0257 34.6777 -71.4843
ltibia 114.496
lfoot 22.4691 -0.897316
ltoes -8.34222
148
root -6.32935 1.83411 -11.8038 -44.8619 -77.7649 304.35
lowerback 25.9237 3.01225 -35.2247
upperback 11.055 -6.76335 -4.79965
thorax 2.35343 -5.78525 12.8947
lowerneck -12.4969 3.24908 -0.763962
upperneck 27.5046 4.59488 -1.05687
head 10.9331 1.55629 0.280096
rclavicle -6.83819e-014 -5.725e-014
rhumerus 11.1307 2.92903 -47.9104
rradius 68.9555
rwrist 12.6626
rhand -32.654 -17.5036
rfingers 7.12502
rthumb -5.88012 -407.402
lclavicle -6.83819e-014 -5.725e-014
lhumerus 14.3816 16.9532 43.1553
lradius 94.6626
lwrist -17.8049
lhand -37.1369 16.0445
lfingers 7.12502
lthumb -10.2067 45.7769
rfemur -124.067 -40.9042 14.5163
rtibia 132.322
rfoot 29.51 22.8162
rtoes 6.94671
lfemur -78.5816 37.4167 -62.8298
ltibia 114.719
lfoot 28.5615 -0.393173
ltoes -4.05044
149
root -6.43384 1.77863 -11.9539 -26.8986 -81.2053 282.324
lowerback 29.7002 3.488 -30.1477
upperback 12.4062 -6.27072 -3.73889
thorax 1.45439 -5.58663 12.1306
lowerneck -12.4058 3.14055 -1.31917
upperneck 28.1363 4.4923 -0.91713
head 11.136 1.42805 0.408839
rclavicle 3.33958e-014 7.95139e-014
rhumerus 9.32712 3.03157 -49.3184
rradius 66.5316
rwrist 12.5982
rhand -33.1292 -15.5425
rfingers 7.12502
rthumb -6.33896 -405.428
lclavicle 3.33958e-014 7.95139e-014
lhumerus 15.7311 16.5053 45.7007
lradius 92.9016
lwrist -16.5275
lhand -37.6837 16.336
lfingers 7.12502
lthumb -10.7342 46.0418
rfemur -113.812 -44.7919 14.0525
rtibia 132.948
rfoot 28.1561 22.4801
rtoes 10.0713
lfemur -71.0179 40.098 -53.2425
ltibia 115.182
lfoot 33.905 -0.94879
ltoes 0.12213
